<svg width="40" height="41" viewBox="0 0 40 41" fill="none" xmlns="http://www.w3.org/2000/svg">
<g clip-path="url(#clip0_23_963)">
<path d="M37.8029 20.53C37.8029 24.0691 36.7693 27.3671 34.9828 30.1364C31.8134 35.0529 26.2848 38.3114 19.9963 38.3114C15.1089 38.3114 10.6861 36.3441 7.46618 33.1576C4.39397 30.1257 2.42747 25.9788 2.21497 21.3752C2.20056 21.0947 2.19336 20.8142 2.19336 20.53C2.19336 16.0775 3.83211 12.0098 6.54056 8.89158C8.5827 6.53944 11.2335 4.72677 14.2481 3.70535C16.0489 3.09034 17.983 2.75586 19.9927 2.75586C20.479 2.75586 20.9652 2.77744 21.4406 2.817C22.9785 2.93928 24.4624 3.25938 25.8634 3.74851C26.1732 3.85641 26.4721 3.9715 26.7747 4.09378C31.0174 5.83811 34.4318 9.17212 36.283 13.3513C36.3515 13.506 36.4199 13.6606 36.4811 13.8153C37.3311 15.8869 37.7957 18.1527 37.7957 20.53H37.8029Z" fill="#29ABE2"/>
<path d="M36.2902 13.3511C36.1534 13.3979 36.0201 13.4554 35.894 13.5237C34.8712 14.056 34.2301 15.0882 33.5025 15.9838C32.7786 16.8793 31.7737 17.7353 30.6248 17.6526C29.1481 17.5519 28.1361 15.9802 26.6774 15.7428C25.5249 15.5558 24.3435 16.2499 23.209 15.973C22.1933 15.7284 21.4766 14.6926 21.4442 13.6496C21.4118 12.603 21.9772 11.5996 22.7804 10.9306C23.6556 10.2041 24.8189 9.8049 25.5033 8.89497C26.3424 7.77645 26.2128 6.23352 26.5333 4.87402C26.5982 4.60428 26.6774 4.34533 26.7783 4.09717C31.021 5.8415 34.4354 9.17551 36.2866 13.3547L36.2902 13.3511Z" fill="#8CC63F"/>
<path d="M15.2458 20.0049C14.3958 20.5192 13.6647 21.2349 12.7498 21.6269C11.6873 22.0837 10.3187 22.1592 9.71004 23.1411C9.09775 24.1229 9.71004 25.4932 10.6933 26.0974C11.6801 26.7017 12.9011 26.7412 14.0572 26.734C15.2134 26.7304 16.4235 26.7088 17.4572 27.2232C17.9038 27.4425 18.3036 27.759 18.7718 27.9245C19.3337 28.1223 19.9532 28.0899 20.5366 27.9712C22.1502 27.6368 23.6701 26.547 24.1923 24.9861C25.8491 20.0372 18.4909 18.0376 15.2458 20.0049Z" fill="#8CC63F"/>
<path d="M34.9828 30.1364C31.8134 35.0529 26.2848 38.3113 19.9963 38.3113C15.1089 38.3113 10.6861 36.344 7.46619 33.1575C7.55263 33.0316 7.64267 32.9165 7.7219 32.8158C9.0149 31.2045 11.1723 30.2047 13.1964 30.6255C15.0693 31.0103 16.582 32.4885 18.4656 32.8374C20.0108 33.1251 21.5847 32.6108 23.0758 32.1037C23.6052 31.9203 24.1527 31.7332 24.5813 31.3736C25.1575 30.888 25.4529 30.1543 25.8995 29.5501C27.1132 27.9137 29.4111 27.3526 31.4028 27.7806C32.8291 28.0935 34.1941 28.9459 34.9828 30.14V30.1364Z" fill="#8CC63F"/>
<path d="M12.7389 11.2151C12.4976 12.2617 11.6945 13.0709 10.9309 13.8226C9.33538 15.3799 7.73985 16.9408 6.14792 18.5017C5.30153 19.3253 4.45154 20.1561 3.44667 20.7747C3.05769 21.0121 2.64711 21.2171 2.21851 21.3753C2.2041 21.0948 2.1969 20.8143 2.1969 20.5301C2.1969 16.0776 3.83565 12.0099 6.5441 8.89169C7.40489 8.99239 8.23688 9.4024 9.10487 9.31249C9.86122 9.23696 10.5455 8.69748 11.3055 8.76222C12.3752 8.85573 12.9767 10.1649 12.7389 11.2115V11.2151Z" fill="#8CC63F"/>
<path d="M21.4442 2.817C21.4046 3.43561 21.1957 4.05062 20.8391 4.55773C18.9591 7.24077 15.1161 6.33084 14.2517 3.70535C16.0525 3.09034 17.9866 2.75586 19.9964 2.75586C20.4826 2.75586 20.9688 2.77744 21.4442 2.817Z" fill="#8CC63F"/>
<path d="M31.6513 25.076C32.2203 25.0292 32.757 24.7991 33.2648 24.5365C34.1328 24.0905 34.9684 23.5187 35.5195 22.7131C36.0705 21.9074 36.2938 20.8285 35.8976 19.9365C35.5015 19.0446 34.3957 18.4655 33.4917 18.8288C32.7246 19.1345 32.2708 19.9833 31.5 20.2782C30.0557 20.8357 29.4831 21.3823 29.2814 23.0439C29.1193 24.3855 30.4123 25.1767 31.6549 25.0724L31.6513 25.076Z" fill="#8CC63F"/>
<g style="mix-blend-mode:multiply" opacity="0.5">
<path d="M37.803 20.53C37.803 24.0691 36.7693 27.3671 34.9829 30.1364C31.8134 35.0529 26.2885 38.3114 20 38.3114V2.75586C20.4862 2.75586 20.9688 2.77744 21.4443 2.817C22.9822 2.93928 24.4661 3.25938 25.8671 3.74851C30.6897 5.4281 34.5651 9.12176 36.4848 13.8189C37.3348 15.8905 37.7994 18.1563 37.7994 20.5336L37.803 20.53Z" fill="#29ABE2"/>
</g>
<g style="mix-blend-mode:screen" opacity="0.5">
<path d="M8.52037 33.1576C5.44816 30.1257 3.48165 25.9788 3.26916 21.3752C3.25475 21.0947 3.24755 20.8142 3.24755 20.53C3.24755 16.0775 4.8863 12.0098 7.59475 8.89158C9.63689 6.53944 12.2877 4.72677 15.3023 3.70535C16.9446 3.14429 18.6987 2.8206 20.5175 2.76665C20.3446 2.76305 20.1717 2.75586 19.9989 2.75586C17.9855 2.75586 16.055 3.08674 14.2542 3.70535C11.2396 4.72677 8.5888 6.53944 6.54666 8.89158C3.83822 12.0098 2.19946 16.0775 2.19946 20.53C2.19946 20.8142 2.20667 21.0947 2.22107 21.3752C2.43357 25.9788 4.40008 30.1257 7.47229 33.1576C10.6886 36.3441 15.115 38.3114 20.0025 38.3114C20.1573 38.3114 20.3086 38.3006 20.4599 38.297C15.8065 38.146 11.607 36.2146 8.52037 33.1576Z" fill="#29ABE2"/>
</g>
<path d="M16.953 18.861C16.953 20.742 15.6636 22.2669 14.0717 22.2669H2.88132C1.29299 22.2669 0 20.742 0 18.861C0 16.98 1.28939 15.4515 2.88132 15.4515C3.46119 15.4515 3.99784 15.6565 4.45165 16.0053C4.97749 14.02 6.58383 12.5742 8.4783 12.5742C10.3728 12.5742 11.9791 14.02 12.5049 16.0053C12.9552 15.6565 13.4954 15.4515 14.0753 15.4515C15.6636 15.4515 16.9566 16.98 16.9566 18.861H16.953Z" fill="white"/>
<path d="M39.9999 29.2193C39.9999 30.7299 38.9627 31.9563 37.6877 31.9563H28.7015C27.4266 31.9563 26.3893 30.7299 26.3893 29.2193C26.3893 27.7088 27.4266 26.4823 28.7015 26.4823C29.1662 26.4823 29.5984 26.6478 29.9621 26.9283C30.3835 25.335 31.6729 24.1733 33.1964 24.1733C34.7199 24.1733 36.0057 25.335 36.4307 26.9283C36.7945 26.6478 37.2267 26.4823 37.6913 26.4823C38.9663 26.4823 40.0035 27.7088 40.0035 29.2193H39.9999Z" fill="white"/>
</g>
<defs>
<clipPath id="clip0_23_963">
<rect width="40" height="40" fill="white" transform="translate(0 0.533691)"/>
</clipPath>
</defs>
</svg>
