<svg id="Layer_1" enable-background="new 0 0 64 64" height="64" viewBox="0 0 64 64" width="64" xmlns="http://www.w3.org/2000/svg"><g id="Button_22_"><g><path d="m60 0h-56c-2.209 0-4 1.791-4 4.001v55.999c0 2.21 1.791 4 4 4h56c2.21 0 4-1.79 4-4v-55.999c0-2.21-1.79-4.001-4-4.001z" fill="#07b25c"/></g></g><g id="Arrow_9_"><g><path clip-rule="evenodd" d="m41.414 28.586-8-8c-.362-.362-.862-.586-1.414-.586-.553 0-1.053.224-1.414.586l-8 8c-.362.362-.586.861-.586 1.414 0 1.104.896 2 2 2 .552 0 1.052-.224 1.414-.586l4.604-4.604v15.19c0 1.105.887 2 1.981 2s1.982-.895 1.982-2v-15.19l4.604 4.604c.362.362.862.586 1.415.586 1.104 0 2-.896 2-2 0-.553-.225-1.052-.586-1.414z" fill="#fff" fill-rule="evenodd"/></g></g><g/><g/><g/><g/><g/><g/><g/><g/><g/><g/><g/><g/><g/><g/><g/></svg>