<svg width="41" height="41" viewBox="0 0 41 41" fill="none" xmlns="http://www.w3.org/2000/svg">
<g clip-path="url(#clip0_23_902)">
<path d="M25.1235 7.41407C24.8879 7.29538 24.6239 7.22353 24.3438 7.21142L10.6691 6.62932L9.81006 6.59298C9.47649 6.57926 9.16073 6.65031 8.88221 6.78836C8.85792 6.9022 8.84497 7.02008 8.84497 7.14118V19.7359C8.84497 20.3528 9.17692 20.8969 9.67647 21.1924C9.90154 21.3256 10.1606 21.4088 10.4383 21.4257L16.1341 21.7737L17.2878 21.8439L18.8658 21.94L18.9476 21.9457L22.6063 22.1685L23.3431 22.2137C23.6888 22.2347 24.0151 22.1515 24.292 21.9909C24.3066 21.9828 24.3211 21.9747 24.3349 21.9659L24.3414 21.9626C24.7349 21.7188 25.0215 21.32 25.113 20.8493C25.134 20.7443 25.1445 20.6353 25.1445 20.5239V7.69018C25.1445 7.59572 25.1364 7.50368 25.1219 7.41407H25.1235ZM19.4253 21.0576L19.4382 21.0511C19.4342 21.0527 19.4301 21.0552 19.4261 21.0576H19.4253Z" fill="#D66339"/>
<path d="M25.1235 7.4142C24.8879 7.29552 24.6239 7.22366 24.3438 7.21155L10.6691 6.62945L9.81004 6.59312C9.47647 6.57939 9.16072 6.65044 8.8822 6.7885C8.98988 6.27986 9.32669 5.85681 9.77847 5.62994C9.78252 5.62752 9.78656 5.6251 9.79061 5.62348L9.89263 5.57746C10.1137 5.48543 10.359 5.4386 10.6148 5.4499L23.5204 5.9989C24.096 6.02313 24.5956 6.33234 24.883 6.78608C25.0028 6.97338 25.0862 7.18653 25.1235 7.4142Z" fill="#DC703F"/>
<path d="M9.78877 5.62354C9.78877 5.62354 9.78188 5.62697 9.77844 5.62903L9.78945 5.62354H9.78877Z" stroke="black" stroke-miterlimit="10"/>
<path d="M30.5334 4.00143L24.883 6.786C24.5955 6.33227 24.096 6.02305 23.5203 5.99883L10.6148 5.44983C10.3589 5.43852 10.1136 5.48535 9.89258 5.57739L13.8606 3.77375C14.3812 3.5372 14.9479 3.4169 15.5203 3.42255L29.4817 3.55173C29.8946 3.55577 30.267 3.72693 30.5334 4.00143Z" fill="#D25F38"/>
<path d="M19.239 18.8502L18.5517 17.007H15.1269L14.4768 18.8502H12.1515L15.8637 9.46387H17.9388L21.6137 18.8502H19.239ZM16.8636 11.9691L15.739 15.1904H17.9639L16.8636 11.9691Z" fill="#EFD3A6"/>
<path d="M16.7785 22.8419C16.5429 22.7233 16.279 22.6514 15.9988 22.6393L2.3241 22.0572L1.46507 22.0209C1.1315 22.0071 0.815746 22.0782 0.537231 22.2162C0.644913 21.7076 0.981721 21.2845 1.4335 21.0577C1.43755 21.0553 1.44159 21.0528 1.44564 21.0512L1.54766 21.0052C1.76869 20.9132 2.014 20.8663 2.26985 20.8776L9.67639 21.1925C9.90146 21.3257 10.1605 21.4089 10.4383 21.4258L16.134 21.7738C16.2935 21.8957 16.4295 22.0443 16.5372 22.2138C16.6571 22.4011 16.7404 22.6143 16.7777 22.8419H16.7785Z" fill="#F1C45B"/>
<path d="M1.44379 21.0513C1.44035 21.0526 1.43691 21.0547 1.43347 21.0568L1.44448 21.0513H1.44379Z" stroke="black" stroke-miterlimit="10"/>
<path d="M9.67634 21.1924L2.2698 20.8776C2.01396 20.8663 1.76864 20.9131 1.54761 21.0051L5.51563 19.2015C6.03622 18.9649 6.60297 18.8446 7.17538 18.8503L8.84484 18.8656V19.736C8.84484 20.3528 9.17679 20.8969 9.67634 21.1924Z" fill="#ECBA4C"/>
<path d="M19.0269 35.7589L17.8286 36.4048L15.998 37.3906C16.479 37.0927 16.8012 36.5623 16.8012 35.9519V23.1182C16.8012 23.0237 16.7931 22.9317 16.7785 22.8421C16.7413 22.6144 16.6579 22.4012 16.5381 22.2139C16.4304 22.0444 16.2944 21.8958 16.1349 21.7739L17.2886 21.8442L18.8666 21.9402C18.8617 21.9564 18.8577 21.9733 18.8544 21.9903C18.8301 22.1041 18.818 22.222 18.818 22.3431V34.9379C18.818 35.235 18.8933 35.5151 19.0269 35.7589Z" fill="#D2963B"/>
<path d="M16.8012 23.1179V35.9517C16.8012 36.562 16.479 37.0924 15.998 37.3904L15.9916 37.3936C15.7049 37.5704 15.3633 37.6632 14.9997 37.6415L2.09336 36.8535C1.19791 36.7986 0.5 36.0582 0.5 35.1637V22.5689C0.5 22.4478 0.512954 22.3299 0.537243 22.2161C0.815758 22.078 1.13152 22.007 1.46508 22.0207L2.32411 22.057L15.9988 22.6392C16.279 22.6513 16.5429 22.7231 16.7785 22.8418C16.7931 22.9314 16.8012 23.0235 16.8012 23.1179Z" fill="#E8B648"/>
<path d="M11.5013 31.2756C11.5013 31.7883 11.4057 32.2194 11.2138 32.5682C11.022 32.9178 10.7677 33.198 10.4512 33.4103C10.1346 33.6226 9.77432 33.7752 9.37031 33.8681C8.9663 33.9609 8.55177 34.0069 8.12671 34.0069H4.60156V24.6206H8.12671C8.46838 24.6206 8.81814 24.6586 9.17681 24.7336C9.53467 24.8087 9.86014 24.9371 10.1516 25.1179C10.4431 25.2996 10.6803 25.5442 10.8641 25.8534C11.0471 26.1627 11.1394 26.5558 11.1394 27.033C11.1394 27.5545 11.0058 27.9857 10.7394 28.3256C10.473 28.6663 10.1225 28.9109 9.68931 29.0611V29.0877C9.93948 29.1321 10.1743 29.2137 10.3953 29.3331C10.6163 29.4526 10.8074 29.6052 10.9701 29.7901C11.1329 29.9758 11.2616 30.1922 11.358 30.44C11.4535 30.6879 11.5021 30.9656 11.5021 31.2756H11.5013ZM9.07641 27.3382C9.07641 27.0201 8.96145 26.7884 8.73232 26.6422C8.50319 26.4961 8.16396 26.4234 7.7138 26.4234H6.6637V28.3595H7.81338C8.21334 28.3595 8.52343 28.2731 8.74446 28.1011C8.96549 27.9292 9.0756 27.6748 9.0756 27.339L9.07641 27.3382ZM9.36383 31.0633C9.36383 30.6742 9.2262 30.4053 8.95092 30.2543C8.67564 30.1042 8.30888 30.0291 7.85063 30.0291H6.66289V32.1767H7.86277C8.02956 32.1767 8.20201 32.1613 8.38175 32.1298C8.56068 32.0991 8.72341 32.0434 8.86915 31.9643C9.01488 31.8844 9.1339 31.7722 9.22539 31.626C9.31687 31.4799 9.36302 31.2926 9.36302 31.0625L9.36383 31.0633Z" fill="#EFD3A6"/>
<path d="M30.9528 5.03165V17.2671C30.9528 17.8242 30.7131 18.324 30.3318 18.6711C30.2265 18.7672 30.1099 18.852 29.9844 18.923L29.9456 18.9448C29.9375 18.9489 29.9286 18.9537 29.9205 18.9586L26.3135 20.9011L26.1735 20.9769L24.3429 21.9627C24.7364 21.7189 25.023 21.3201 25.1145 20.8494C25.1355 20.7444 25.1461 20.6354 25.1461 20.524V7.69028C25.1461 7.59582 25.138 7.50378 25.1234 7.41416C25.0861 7.18649 25.0027 6.97334 24.8829 6.78604L30.5334 4.00146C30.7933 4.26709 30.9528 4.6312 30.9528 5.03165Z" fill="#BD4A2D"/>
<path d="M34.7823 22.6157C34.5515 22.497 34.2924 22.4252 34.018 22.4131L24.2935 21.9908C24.308 21.9827 24.3226 21.9747 24.3364 21.9658L24.3428 21.9626L26.1734 20.9768L26.3135 20.9009L33.2108 21.2004C33.7751 21.2246 34.2649 21.5338 34.5467 21.9876C34.6641 22.1749 34.7458 22.388 34.7823 22.6157Z" fill="#6AAB96"/>
<path d="M40.5 20.2333V32.4688C40.5 33.1801 40.1162 33.7985 39.5503 34.1247L39.5122 34.1465C39.5041 34.1505 39.4952 34.1554 39.4871 34.1602L35.8122 36.1786L34.0172 37.1644C34.4892 36.8665 34.805 36.336 34.805 35.7257V22.8919C34.805 22.7975 34.7969 22.7054 34.7823 22.6158C34.7459 22.3881 34.6641 22.175 34.5467 21.9877L40.0887 19.2031C40.3437 19.4687 40.5 19.8329 40.5 20.2333Z" fill="#498070"/>
<path d="M34.7824 22.6157C34.5517 22.497 34.2926 22.4252 34.0181 22.4131L24.2936 21.9908C24.0167 22.1515 23.6904 22.2346 23.3447 22.2136L22.6079 22.1684L18.9492 21.9456L18.8674 21.9399C18.8626 21.9561 18.8585 21.973 18.8553 21.99C18.831 22.1038 18.8188 22.2217 18.8188 22.3428V34.9376C18.8188 35.2347 18.8941 35.5148 19.0277 35.7587C19.2949 36.2487 19.7953 36.591 20.3814 36.6274L33.0393 37.4153C33.3955 37.4371 33.7307 37.3443 34.0116 37.1675L34.0181 37.1643C34.4901 36.8663 34.8059 36.3359 34.8059 35.7255V22.8918C34.8059 22.7974 34.7978 22.7053 34.7832 22.6157H34.7824Z" fill="#61A18E"/>
<path d="M29.1797 33.8406C28.6049 34.1191 27.9426 34.258 27.1921 34.258C26.5087 34.258 25.8772 34.1385 25.2983 33.9003C24.7186 33.6613 24.2175 33.3238 23.7924 32.8863C23.3674 32.4487 23.0338 31.9247 22.7925 31.3151C22.5504 30.7056 22.4298 30.0339 22.4298 29.3C22.4298 28.5661 22.5529 27.8685 22.7982 27.2582C23.0435 26.6486 23.3836 26.1295 23.8167 25.7008C24.2499 25.2721 24.7583 24.9427 25.3421 24.7134C25.925 24.4833 26.5549 24.3687 27.2293 24.3687C27.8544 24.3687 28.4689 24.4857 29.0729 24.7199C29.6769 24.954 30.1667 25.2963 30.5415 25.7476L29.0915 27.2856C28.8915 26.9942 28.6292 26.7778 28.3037 26.6357C27.979 26.4944 27.6455 26.4234 27.3038 26.4234C26.929 26.4234 26.5849 26.496 26.2723 26.6422C25.9598 26.7883 25.691 26.9893 25.4659 27.2453C25.2409 27.502 25.066 27.8048 24.9413 28.1535C24.8166 28.5031 24.7535 28.885 24.7535 29.3C24.7535 29.715 24.8158 30.113 24.9413 30.4666C25.066 30.8202 25.2392 31.123 25.4603 31.3749C25.6813 31.6268 25.9452 31.8238 26.2537 31.9651C26.5622 32.1064 26.8998 32.1774 27.2666 32.1774C27.6916 32.1774 28.0624 32.0894 28.379 31.9126C28.6956 31.7358 28.9498 31.5065 29.1417 31.2231L30.629 32.7078C30.2371 33.185 29.7538 33.5628 29.1789 33.8414L29.1797 33.8406Z" fill="#EFD3A6"/>
<path d="M30.3318 18.6709C30.2266 18.767 30.11 18.8517 29.9845 18.9228L29.9456 18.9446C29.9375 18.9486 29.9286 18.9535 29.9205 18.9583L26.3136 20.9008L27.9264 20.9711L32.164 18.6887L30.3318 18.6717V18.6709Z" fill="#498070"/>
<path d="M39.0571 18.7534L32.1639 18.688L27.9263 20.9704L33.2108 21.1997C33.7751 21.2239 34.2649 21.5331 34.5466 21.9868L40.0886 19.2023C39.8271 18.9278 39.4619 18.7566 39.0571 18.7526V18.7534Z" fill="#5B9683"/>
</g>
<defs>
<clipPath id="clip0_23_902">
<rect width="40" height="40" fill="white" transform="translate(0.5 0.533691)"/>
</clipPath>
</defs>
</svg>
