<svg width="42" height="42" viewBox="0 0 42 42" fill="none" xmlns="http://www.w3.org/2000/svg">
<rect width="42" height="42" rx="21" fill="white" fill-opacity="0.12"/>
<path d="M11.3447 13.5049C11.3447 12.8606 11.571 12.3291 12.0235 11.9104C12.476 11.4916 13.0642 11.2822 13.7882 11.2822C14.4993 11.2822 15.0746 11.4884 15.5142 11.9007C15.9667 12.3259 16.1929 12.88 16.1929 13.5629C16.1929 14.1813 15.9731 14.6967 15.5336 15.1091C15.0811 15.5343 14.4864 15.7469 13.7494 15.7469H13.73C13.019 15.7469 12.4437 15.5343 12.0041 15.1091C11.5645 14.6839 11.3447 14.1491 11.3447 13.5049ZM11.5968 30.4164V17.5057H15.902V30.4164H11.5968ZM18.2873 30.4164H22.5925V23.2073C22.5925 22.7563 22.6443 22.4084 22.7477 22.1636C22.9287 21.7255 23.2034 21.355 23.5719 21.0523C23.9403 20.7495 24.4025 20.5981 24.9585 20.5981C26.4065 20.5981 27.1304 21.5709 27.1304 23.5165V30.4164H31.4356V23.014C31.4356 21.107 30.9831 19.6607 30.0781 18.675C29.1731 17.6893 27.9773 17.1964 26.4905 17.1964C24.8227 17.1964 23.5234 17.9115 22.5925 19.3418V19.3804H22.5731L22.5925 19.3418V17.5057H18.2873C18.3132 17.918 18.3261 19.2 18.3261 21.3518C18.3261 23.5036 18.3132 26.5251 18.2873 30.4164Z" fill="white"/>
</svg>
