<svg width="42" height="42" viewBox="0 0 42 42" fill="none" xmlns="http://www.w3.org/2000/svg">
<path d="M21.5444 40.5266C10.4992 40.8256 1.30617 32.1171 1.00718 21.0719C0.708184 10.0267 9.41683 0.840222 20.462 0.541228C31.5072 0.242234 40.6937 8.95088 40.9925 19.9895C41.2913 31.0281 32.5829 40.2212 21.5443 40.52L21.5444 40.5266Z" fill="#F2F2F2"/>
<path d="M22.1231 3.22514L14.4961 6.83921L8.43018 7.00341L8.80265 4.69303C8.55736 4.88422 8.31866 5.07523 8.08014 5.27283L7.90596 7.36034L3.74585 14.1366L1.37614 16.6856C1.31848 16.9903 1.2674 17.2949 1.22291 17.5993L3.70885 14.7176L6.78914 19.9137L6.89632 28.499L4.9839 30.8972L3.13398 29.517C3.35687 29.9592 3.59933 30.3942 3.85479 30.8223L4.47819 31.2075L4.32993 31.574C4.47412 31.7876 4.6185 32.0078 4.7691 32.2147C4.765 32.0632 4.77407 31.9113 4.78297 31.7529L9.95273 37.1956C11.3286 38.1075 12.812 38.8517 14.3955 39.402L17.261 39.8254L22.2023 40.4826C22.9656 40.4355 23.7147 40.3493 24.4495 40.224L17.387 39.1233L16.2352 34.0727L23.7183 29.7705L31.7251 30.9379L31.8733 36.4111L26.7678 39.6735C29.5725 38.8264 32.1106 37.3867 34.2413 35.5033L32.4839 36.0782L32.3357 30.605L35.9354 22.3609L39.9597 20.5515L40.8418 22.9465C40.9607 21.981 41.0064 20.9911 40.9793 19.99C40.9214 17.8495 40.5232 15.8038 39.8517 13.8842L39.9007 19.8347L35.8764 21.6441L31.0284 14.9404L30.2565 7.36169L34.4654 6.52933L37.9041 9.87021C37.3945 9.06012 36.8266 8.29115 36.2073 7.56971L34.7969 6.35558L34.8634 6.13627C31.5808 2.96253 27.2081 0.912419 22.3745 0.581888L22.1165 3.22532L22.1231 3.22514ZM15.7992 33.5507L7.44601 28.5962L7.33883 20.0109L13.9274 15.2912L22.5268 19.3558L23.2893 29.2614L15.7996 33.5638L15.7992 33.5507ZM30.3985 14.7992L22.8776 18.6806L14.2782 14.616L14.8419 7.19236L22.4688 3.57829L29.6261 7.20739L30.3981 14.786L30.3985 14.7992Z" fill="#303030"/>
<g style="mix-blend-mode:multiply">
<path d="M35.5271 6.79045C35.5271 6.79045 35.5282 6.82997 35.5287 6.84973C35.9347 21.8467 24.1055 34.3341 9.10851 34.7401C8.36425 34.7602 7.62552 34.7407 6.89284 34.7012C10.6386 38.4292 15.8407 40.681 21.5444 40.5266C32.583 40.2278 41.2915 31.0347 40.9927 19.9961C40.8538 14.8654 38.7976 10.2479 35.5271 6.79045Z" fill="#C4C4C4"/>
</g>
</svg>
