<svg width="42" height="42" viewBox="0 0 42 42" fill="none" xmlns="http://www.w3.org/2000/svg">
<rect width="42" height="42" rx="21" fill="white" fill-opacity="0.12"/>
<path fill-rule="evenodd" clip-rule="evenodd" d="M28.0735 13.8738C26.1939 11.992 23.6942 10.9552 21.0311 10.9541C15.5437 10.9541 11.0777 15.42 11.0755 20.9089C11.0747 22.6636 11.5331 24.3764 12.4043 25.8862L10.9919 31.045L16.2696 29.6606C17.7238 30.4538 19.361 30.8719 21.0271 30.8724H21.0313C26.5181 30.8724 30.9846 26.4061 30.9867 20.9169C30.9878 18.2567 29.9532 15.7555 28.0735 13.8738ZM21.0311 29.191H21.0277C19.543 29.1904 18.0868 28.7914 16.8161 28.0376L16.5141 27.8582L13.3823 28.6798L14.2182 25.6263L14.0214 25.3133C13.1931 23.9958 12.7557 22.473 12.7564 20.9096C12.7581 16.3473 16.4702 12.6355 21.0345 12.6355C23.2447 12.6363 25.3223 13.4981 26.8845 15.0622C28.4468 16.6263 29.3066 18.7052 29.3059 20.9163C29.3039 25.4789 25.5921 29.191 21.0311 29.191ZM25.57 22.9937C25.3213 22.8691 24.0982 22.2675 23.8702 22.1844C23.6423 22.1013 23.4763 22.06 23.3106 22.3089C23.1447 22.5579 22.6681 23.1183 22.5229 23.2842C22.3777 23.4502 22.2327 23.4711 21.9839 23.3465C21.7351 23.222 20.9337 22.9592 19.9834 22.1118C19.244 21.4522 18.7448 20.6376 18.5996 20.3886C18.4547 20.1395 18.5984 20.0178 18.7087 19.881C18.978 19.5466 19.2477 19.196 19.3306 19.0301C19.4136 18.864 19.372 18.7187 19.3097 18.5943C19.2477 18.4698 18.7502 17.2454 18.543 16.7472C18.3409 16.2623 18.136 16.3278 17.9832 16.3202C17.8382 16.3129 17.6723 16.3115 17.5064 16.3115C17.3406 16.3115 17.0711 16.3736 16.843 16.6228C16.615 16.8719 15.9725 17.4736 15.9725 18.698C15.9725 19.9224 16.8639 21.1053 16.9882 21.2713C17.1125 21.4373 18.7423 23.9499 21.2376 25.0273C21.8312 25.2838 22.2944 25.4367 22.6558 25.5514C23.2518 25.7407 23.7939 25.714 24.2226 25.65C24.7006 25.5785 25.6942 25.0482 25.9017 24.4672C26.1089 23.886 26.1089 23.3881 26.0466 23.2842C25.9846 23.1804 25.8187 23.1183 25.57 22.9937Z" fill="white"/>
</svg>
